<?xml version="1.0" encoding="UTF-8"?>
<svg id="Capa_2" data-name="Capa 2" xmlns="http://www.w3.org/2000/svg" viewBox="0 0 81.97 81.97">
  <defs>
    <style>
      .cls-1, .cls-2 {
        fill: #fff;
      }

      .cls-3, .cls-4 {
        fill: #4c4c4c;
      }

      .cls-5 {
        fill: #f8d44e;
      }

      .cls-5, .cls-2, .cls-6, .cls-7, .cls-4, .cls-8 {
        fill-rule: evenodd;
      }

      .cls-6 {
        fill: #c18705;
      }

      .cls-7 {
        fill: #676665;
      }

      .cls-8 {
        fill: #ffb703;
      }
    </style>
  </defs>
  <g id="Layer_1" data-name="Layer 1">
    <g>
      <path class="cls-8" d="M40.98,81.97c22.57,0,40.99-18.41,40.99-40.99S63.55,0,40.98,0,0,18.41,0,40.98s18.41,40.99,40.98,40.99h0Z"/>
      <path class="cls-5" d="M50.8,49.93c1.95-2.21,3.14-5.12,3.14-8.3,0-6.93-5.62-12.54-12.54-12.54s-12.54,5.61-12.54,12.54c0,3.18,1.18,6.08,3.13,8.3h0c.72,.89,1.45,1.77,1.89,2.92,.45,1.14,.6,2.55,.83,3.41,.23,.86,.2,1.49,1.34,1.49h5.35c1.96,0,4.22,.18,5.34,.01,1.12-.16,1.11-.65,1.34-1.51,.22-.86,.38-2.26,.83-3.41,.44-1.14,1.17-2.03,1.89-2.92h0Z"/>
      <path class="cls-7" d="M36.04,57.74h10.67s.01,0,.01,.01v6.72c0,.33-.27,.61-.61,.61h-9.47c-.33,0-.61-.27-.61-.61v-6.74Z"/>
      <rect class="cls-3" x="36.04" y="57.74" width="10.69" height=".93"/>
      <rect class="cls-3" x="36.04" y="59.61" width="10.69" height=".93"/>
      <rect class="cls-3" x="36.04" y="61.47" width="10.69" height=".93"/>
      <rect class="cls-3" x="36.04" y="63.34" width="10.69" height=".93"/>
      <path class="cls-4" d="M36.65,65.09c.74,.74,1.48,1.48,2.22,2.22h5.03c.74-.74,1.48-1.48,2.22-2.22h-9.47Z"/>
      <path class="cls-2" d="M43.96,57.74c1.56-5.84,3.09-11.54,4.66-17.38-.91-.65-2.25-1.54-3.35-1.57-.4,0-.8,.09-1.17,.26-.35-.35-.77-.61-1.25-.76-1.21-.36-2.81,.01-3.91,.69-.54-.32-1.22-.43-1.82-.32-1.15,.22-2.18,1.24-2.96,2.08,1.57,5.84,2.99,11.15,4.55,16.99h.88l-4.61-17.21c.63-.58,1.41-1.27,2.22-1.42,.43-.08,.91-.02,1.32,.17-.45,.36-.84,.82-1.06,1.35-.18,.42-.26,.94-.09,1.38,.31,.81,1.36,1.03,2.01,.47,.68-.6,.8-1.88,.38-2.66-.11-.21-.25-.38-.42-.54,.99-.55,2.36-.86,3.38-.55,.37,.11,.7,.31,.98,.56-.38,.27-.68,.65-.84,1.09-.16,.45-.18,.97-.05,1.42,.1,.37,.32,.81,.71,.95,.04,.02,.08,.03,.12,.04,.38,.07,.74-.17,.97-.45,.29-.35,.43-.81,.42-1.26,0-.58-.26-1.17-.59-1.63,0-.01-.02-.02-.03-.04,.27-.11,.56-.17,.85-.17,.82,.02,1.75,.58,2.49,1.08l-4.67,17.42h.88Zm.05-18.12c-.33,.23-.59,.54-.73,.91-.13,.36-.14,.79-.04,1.15,.06,.22,.21,.56,.43,.64,.01,0,.03,0,.04,.01,.21,.04,.43-.14,.55-.29,.22-.27,.32-.63,.32-.97,0-.49-.22-.99-.5-1.38-.02-.03-.04-.06-.07-.09h0Zm-5.08-.09s-.04,.03-.06,.04c-.42,.31-.79,.74-.99,1.22-.13,.31-.22,.72-.09,1.05,.2,.51,.88,.65,1.29,.29,.35-.31,.49-.91,.47-1.37-.01-.26-.07-.52-.19-.74-.1-.19-.25-.36-.42-.49h0Z"/>
      <polygon class="cls-2" points="40.82 25.92 40.73 11.47 41.85 11.46 41.94 25.91 40.82 25.92"/>
      <polygon class="cls-2" points="40.82 25.92 40.73 11.47 41.85 11.46 41.94 25.91 40.82 25.92"/>
      <polygon class="cls-2" points="49.46 27.68 56.61 15.13 57.58 15.68 50.43 28.23 49.46 27.68"/>
      <rect class="cls-1" x="55.93" y="30.42" width="14.45" height="1.11" transform="translate(-7 36.15) rotate(-30.34)"/>
      <polygon class="cls-2" points="57.97 44.91 72.41 44.82 72.42 45.93 57.97 46.02 57.97 44.91"/>
      <polygon class="cls-2" points="33.3 27.68 26.15 15.12 25.18 15.67 32.33 28.23 33.3 27.68"/>
      <rect class="cls-1" x="19.05" y="23.74" width="1.11" height="14.44" transform="translate(-17.02 32.24) rotate(-59.65)"/>
      <polygon class="cls-2" points="24.79 44.9 10.35 44.81 10.34 45.92 24.79 46.01 24.79 44.9"/>
      <path class="cls-6" d="M77.36,59.87l-13.89-13.88-5.5,.03v-1.11s4.4-.03,4.4-.03l-12.09-12.09c2.25,2.27,3.65,5.4,3.65,8.84,0,3.18-1.19,6.08-3.14,8.3h0c-.72,.89-1.45,1.77-1.89,2.92-.45,1.14-.6,2.55-.83,3.41-.23,.86-.21,1.35-1.34,1.51v6.72c0,.33-.27,.61-.61,.61l-2.22,2.22h-5.03l-2.22-2.22c-.16,0-.3-.06-.41-.16l15.58,15.58c11.1-3.04,20.32-10.63,25.53-20.65h0Z"/>
    </g>
  </g>
</svg>