<?xml version="1.0" encoding="UTF-8"?>
<svg id="Capa_2" data-name="Capa 2" xmlns="http://www.w3.org/2000/svg" viewBox="0 0 81.97 81.97">
  <defs>
    <style>
      .cls-1 {
        fill: #c98c05;
      }

      .cls-1, .cls-2, .cls-3 {
        fill-rule: evenodd;
      }

      .cls-2 {
        fill: #fff;
      }

      .cls-3 {
        fill: #ffb703;
      }

      .cls-4 {
        fill: #b0d2e3;
      }
    </style>
  </defs>
  <g id="Layer_1" data-name="Layer 1">
    <g>
      <path class="cls-3" d="M40.98,81.97c22.57,0,40.99-18.41,40.99-40.99S63.55,0,40.98,0,0,18.41,0,40.98s18.41,40.99,40.98,40.99h0Z"/>
      <path class="cls-2" d="M17.84,59.71h46.26v-1.28l1.62,1.12,1.62,1.12-1.62,1.12-1.62,1.12v-1.28H15.9V22.29h-1.28l1.12-1.62,1.12-1.62,1.12,1.62,1.12,1.62h-1.28V59.71Z"/>
      <rect class="cls-4" x="19.41" y="47.56" width="6.09" height="10.58"/>
      <rect class="cls-4" x="27.12" y="43.73" width="6.09" height="14.41"/>
      <rect class="cls-4" x="34.73" y="38.25" width="6.09" height="19.89"/>
      <rect class="cls-4" x="42.4" y="33.2" width="6.1" height="24.93"/>
      <rect class="cls-4" x="50.22" y="28.16" width="6.1" height="29.98"/>
      <rect class="cls-4" x="58.01" y="22.15" width="6.1" height="35.98"/>
      <path class="cls-1" d="M17.84,22.29V59.71h46.26v-1.28l1.62,1.12,1.62,1.12-1.62,1.12-1.62,1.12v-1.28H15.9l20.01,20.01c1.66,.21,3.36,.32,5.08,.32,22.63,0,40.99-18.35,40.99-40.99,0-.33,0-.66-.01-.99l-17.84-17.84V58.14h-6.1V29.86l-1.7-1.7v29.98h-6.1v-23.21l-1.72-1.72v24.93h-6.1v-18.31l-1.58-1.58v19.89h-6.09v-19.89h1.35L16.87,19.04l1.12,1.62,1.12,1.62h-1.28Zm9.28,35.85v-14.41h6.09v14.41h-6.09Zm-7.71-10.58h6.09v10.58h-6.09v-10.58Z"/>
    </g>
  </g>
</svg>