<?xml version="1.0" encoding="UTF-8"?>
<svg xmlns="http://www.w3.org/2000/svg" viewBox="0 0 428.3 279.69">
  <defs>
    <style>
      .cls-1 {
        stroke: #1f74c2;
      }

      .cls-1, .cls-2 {
        fill: #fff;
      }

      .cls-1, .cls-3, .cls-4, .cls-5, .cls-6 {
        stroke-linecap: round;
        stroke-linejoin: round;
      }

      .cls-7 {
        fill: #5f87df;
      }

      .cls-8 {
        fill: #dba38d;
      }

      .cls-9 {
        stroke: #19365a;
        stroke-miterlimit: 10;
      }

      .cls-9, .cls-3, .cls-4, .cls-5, .cls-6 {
        fill: none;
      }

      .cls-10 {
        fill: #7298e2;
      }

      .cls-11 {
        fill: #a05e47;
      }

      .cls-12 {
        fill: #d38e33;
      }

      .cls-3 {
        stroke: #3c62a0;
      }

      .cls-3, .cls-4 {
        stroke-width: .28px;
      }

      .cls-13 {
        isolation: isolate;
      }

      .cls-14 {
        fill: #638dce;
      }

      .cls-15 {
        fill: #cc957f;
      }

      .cls-16 {
        fill: #19365a;
      }

      .cls-4 {
        stroke: #a5867c;
      }

      .cls-17 {
        fill: #171c27;
      }

      .cls-18 {
        fill: #173658;
      }

      .cls-19 {
        fill: #c18b76;
      }

      .cls-20 {
        fill: #224cb3;
      }

      .cls-21 {
        fill: #b57359;
      }

      .cls-22 {
        fill: #503972;
      }

      .cls-23 {
        fill: #fbb040;
      }

      .cls-24 {
        fill: #0d2638;
      }

      .cls-25, .cls-26 {
        fill: #171e26;
      }

      .cls-27 {
        fill: #bf4040;
      }

      .cls-28 {
        fill: #7f4637;
      }

      .cls-29 {
        fill: #3f649e;
      }

      .cls-30 {
        fill: #632a1a;
      }

      .cls-26 {
        opacity: .3;
      }

      .cls-31 {
        fill: #d7eff9;
      }

      .cls-32 {
        fill: #d3afa5;
      }

      .cls-33 {
        fill: #eeb399;
      }

      .cls-34 {
        fill: #e59b39;
      }

      .cls-35 {
        fill: #a7a9ac;
        mix-blend-mode: multiply;
      }

      .cls-5 {
        stroke: #7f4637;
        stroke-width: .57px;
      }

      .cls-6 {
        stroke: #244e80;
        stroke-dasharray: 0 2.83;
        stroke-width: .85px;
      }

      .cls-36 {
        fill: #709ce8;
      }

      .cls-37 {
        fill: #eacfc5;
      }

      .cls-38 {
        fill: #f75454;
      }

      .cls-39 {
        fill: #774031;
      }
    </style>
  </defs>
  <g class="cls-13">
    <g id="Capa_2" data-name="Capa 2">
      <g id="Objects">
        <g>
          <g>
            <path class="cls-31" d="M312.61,54.75c-28.04-8.92-61.13-13.17-90.5-14.61-53.33-2.63-107.36,11.31-152.77,39.4-24.34,15.06-46.73,34.74-59.45,60.38-31.92,64.33,18.25,123.28,81.2,135.81,31.74,6.32,64.49,3.68,96.79,1.64,41.98-2.66,84.12-4.28,126.08-1.41,16.01,1.09,32.28,2.82,47.94-.67,36.67-8.16,62.35-44.86,65.9-82.25,2.96-31.14-7.44-63.32-28.06-86.84-8.9-10.15-19.54-18.64-31.03-25.68-17.97-11.01-36.68-19.58-56.1-25.75Z"/>
            <g>
              <g>
                <polygon class="cls-35" points="361.02 105.65 353.39 110.84 365.27 113.99 365.27 124.03 371.06 116.96 384.21 120.31 397.22 91.51 361.02 105.65"/>
                <g>
                  <polygon class="cls-2" points="363.98 110.84 363.98 120.31 372.1 111.71 363.98 110.84"/>
                  <polygon class="cls-2" points="366.02 111.71 397.99 85.95 382.75 116.01 366.02 111.71"/>
                  <polygon class="cls-2" points="397.99 85.95 352.85 106.1 366.02 111.71 397.99 85.95"/>
                  <polygon class="cls-16" points="366.02 111.71 363.98 110.84 397.99 85.95 366.02 111.71"/>
                </g>
              </g>
              <path class="cls-6" d="M361.88,126.75c-9.56,8.54-22.93,11.74-35.75,11.53-5.59-.09-11.27-.8-16.33-3.17-2.62-1.23-5.1-2.95-6.68-5.38-1.58-2.43-2.13-5.65-.91-8.28,1.22-2.63,4.43-4.34,7.17-3.4,2.94,1.01,4.38,4.63,3.75,7.67-.63,3.05-2.84,5.54-5.27,7.47-6.12,4.85-14.07,7.04-21.88,7.13-7.81,.09-15.53-1.78-22.9-4.36"/>
            </g>
            <path class="cls-2" d="M142.04,116.05c1.1-.03,2.23-.06,3.24-.5,.76-.33,1.41-.86,1.97-1.47,3.9-4.21,2.45-12.05-2.69-14.59-5.14-2.54-12.25,1.06-13.23,6.72-.42-1.77-2.03-3.18-3.83-3.38-1.8-.19-3.68,.85-4.46,2.49-1.19-4.54-3.23-9.05-6.86-12.03-3.63-2.98-9.12-4.03-13.09-1.53-5.04,3.17-5.7,10.18-5.31,16.12-.26-3.93-8.06,.32-8.83,2.26-3.2-2.35-9.27,.17-6.36,4.07,2.45,3.28,10.9,2.65,14.35,2.64,15.03-.05,30.07-.41,45.1-.8Z"/>
            <path class="cls-31" d="M345.35,40.73c1.1-.03,2.23-.06,3.24-.5,.76-.33,1.41-.86,1.97-1.47,3.9-4.21,2.45-12.05-2.69-14.59-5.14-2.54-12.25,1.06-13.23,6.72-.42-1.77-2.03-3.18-3.83-3.38-1.8-.19-3.68,.85-4.46,2.49-1.19-4.54-3.23-9.05-6.86-12.03-3.63-2.98-9.12-4.03-13.09-1.53-5.04,3.17-5.7,10.18-5.31,16.12-.26-3.93-8.06,.32-8.83,2.26-3.2-2.35-9.27,.17-6.36,4.07,2.45,3.28,10.9,2.65,14.35,2.64,15.03-.05,30.07-.41,45.1-.8Z"/>
          </g>
          <g>
            <g>
              <path class="cls-16" d="M259.8,228.44h15.75c4.45,0,8.06,3.61,8.06,8.06v38.55h-31.88v-38.55c0-4.45,3.61-8.06,8.06-8.06Z" transform="translate(28.96 -27.61) rotate(6.24)"/>
              <path class="cls-11" d="M245.83,226.84s-4.16-.99-8.03-4.92c-5.27-5.35-7.74-13.52-7.33-24.26,0-.01,0-.02,0-.03-4.01-.66-11.23-.4-11.23-.4-.68,17.94,5.62,28,11.11,33.28,6.11,5.87,12.45,7.29,13.15,7.44,.38,.08,.76,.12,1.14,.12,2.64,0,5.03-1.85,5.58-4.53,.62-3.07-1.32-6.05-4.39-6.68Z"/>
              <path class="cls-34" d="M243.65,238.24c.39,.08,.79,.12,1.18,.12,2.73,0,5.19-1.91,5.76-4.68,.64-3.17-1.37-6.25-4.53-6.89-.04-.01-4.29-1.02-8.29-5.08-.93-.94-1.77-1.98-2.53-3.09l-8.41,8.32c1.08,1.4,2.18,2.6,3.25,3.63,6.31,6.06,12.85,7.53,13.57,7.67Z"/>
              <path class="cls-11" d="M230.16,191.61c-.07-.48-.16-.98-.46-1.35s-.88-.57-1.28-.3c-.61,.42-.28,1.4-.59,2.07-.23,.51-.8,.77-1.35,.84-.55,.06-1.11-.04-1.66-.05-2.66-.08-5.21,2.04-5.63,4.67-.08,.5-.08,1.04,.21,1.45,.37,.52,1.06,.65,1.69,.74,1.68,.25,3.39,.49,5.08,.36,1.53-.12,4.06-.55,4.3-2.32,.27-1.93-.04-4.19-.32-6.11Z"/>
              <path class="cls-30" d="M221.68,198.78c-.07-.08-.14-.17-.2-.27-.06-.09-.03-.21,.06-.27,.09-.06,.21-.03,.27,.06,.17,.28,.37,.43,.59,.44,.43,.02,.91-.46,1.06-.65,.03-.04,.08-.07,.14-.08,.05,0,.11,.01,.15,.05,.34,.3,.63,.43,.88,.36,.38-.09,.57-.59,.57-.59,.03-.07,.09-.12,.17-.13,.07,0,.15,.03,.19,.09,.17,.28,.35,.44,.55,.48,.21,.04,.37-.08,.38-.09,1.6-1.15-.35-4.89-.37-4.93-.05-.1-.01-.21,.08-.27,.1-.05,.21-.02,.27,.08,.09,.17,2.13,4.08,.26,5.42,0,0-.29,.23-.68,.16-.23-.04-.44-.17-.63-.39-.13,.21-.36,.45-.69,.53-.34,.08-.7-.03-1.09-.32-.23,.24-.72,.68-1.25,.65-.26-.01-.5-.13-.7-.36Z"/>
              <path class="cls-30" d="M225.24,198.04s-.04-.06-.05-.1c0-.04-.6-3.77-1.13-4.79-.05-.1-.01-.21,.08-.26,.1-.05,.22-.01,.26,.08,.56,1.08,1.15,4.75,1.17,4.91,.02,.11-.06,.21-.16,.22-.07,.01-.13-.01-.18-.06Z"/>
              <path class="cls-30" d="M223.47,198.35s-.04-.06-.05-.1c0-.04-.68-3.72-1.2-4.65-.05-.09-.02-.21,.07-.27,.09-.05,.21-.02,.27,.07,.56,.99,1.22,4.62,1.25,4.77,.02,.11-.05,.21-.16,.23-.07,.01-.14-.01-.18-.06Z"/>
              <path class="cls-30" d="M227.16,197.4s-.06-.12-.04-.19c.08-.27,.28-.5,.53-.61-.23-.55-.42-1.02-.53-1.54-.14-.63-.12-1.21,.05-1.71,.09-.27,.22-.47,.39-.6,.28-.21,.7-.24,1.07-.07,.33,.15,.57,.41,.76,.65,.57,.7,.98,1.52,1.19,2.35,.03,.11-.04,.21-.14,.24-.1,.02-.21-.04-.24-.14-.19-.78-.57-1.54-1.11-2.2-.16-.2-.36-.42-.62-.54-.24-.11-.5-.1-.67,.03-.11,.08-.19,.21-.26,.41-.15,.43-.16,.94-.04,1.5,.11,.5,.3,.97,.53,1.5,.02,.06,.07,.17,.02,.29-.05,.11-.16,.16-.21,.18-.17,.07-.29,.21-.34,.37-.03,.1-.14,.17-.24,.14-.04-.01-.07-.03-.09-.06Z"/>
              <path class="cls-23" d="M236.37,235.05l2.74,35.43s8,4.36,19.29,3.04c11.29-1.31,13.77-6.3,13.77-6.3,0,0-1.95-34.76-2.28-35.11-.33-.34-1.66-11.77-18-9.43-16.34,2.33-15.51,12.37-15.51,12.37Z"/>
              <path class="cls-12" d="M259.96,236.44s9.06,15.28,3.23,32.25c0,0,9.32-13.43,8.98-17.85-.35-4.43-12.21-14.4-12.21-14.4Z"/>
              <path class="cls-11" d="M280.97,248.53l-13.33-21.17c-1.67-2.65-5.17-3.45-7.82-1.78-2.65,1.67-3.44,5.17-1.78,7.82l11.7,18.57-8.22,17.88s4.04,4.87,10.3,4.74l9.5-20.67c.8-1.74,.67-3.77-.35-5.39Z"/>
              <polygon class="cls-11" points="259.29 216.44 255.75 225.61 250.04 227.83 246.9 223.74 249.03 218.23 259.29 216.44"/>
              <path class="cls-39" d="M256.36,220.62l-8.1-.39-1.13,2.94c4.22,1.01,9.24-2.54,9.24-2.54Z"/>
              <rect class="cls-11" x="244.23" y="198.74" width="16.69" height="23.86" rx="6.31" ry="6.31" transform="translate(92.76 -76.8) rotate(21.1)"/>
              <path class="cls-26" d="M258.76,200.27l-3.79-1.46c-2.83-1.09-5.99,.01-7.58,2.47,.55,.89,1.3,1.65,2.22,2.13,1.73,.91,3.78,.99,5.72,.74,.75-.1,1.53-.23,2.26-.05,.74,.18,1.43,.8,1.42,1.56-.01,.63-.5,1.15-1.02,1.5-.32,.22-.68,.4-.93,.7-.32,.39-.4,.91-.46,1.41-.18,1.61-.2,3.33,.62,4.72,.45,.76,1.11,1.36,1.79,1.92,.12,.1,.24,.19,.37,.29l3-7.78c1.25-3.24-.38-6.91-3.62-8.16Z"/>
              <path class="cls-11" d="M262.23,216.36c-.41,1.05-1.59,1.58-2.64,1.17-1.05-.41-1.58-1.59-1.17-2.64,.41-1.05,1.59-1.58,2.64-1.17,1.05,.41,1.58,1.59,1.17,2.64Z"/>
              <path class="cls-23" d="M267.64,227.36c-1.67-2.65-5.17-3.45-7.82-1.78-2.65,1.67-3.44,5.17-1.78,7.82l6.01,9.54c1.91-.74,6.86-2.79,10.09-5.25l-6.51-10.33Z"/>
              <path class="cls-11" d="M271.06,276.6c-.3,.62-.63,1.27-1.19,1.67-.56,.41-1.42,.49-1.9-.01-.25-.26-.38-.65-.72-.78-.42-.17-.85,.18-1.28,.3-.8,.23-1.66-.36-1.95-1.14-.1-.26-.16-.55-.39-.71-.5-.34-1.26,.31-1.76-.04-.38-.27-.27-.93-.64-1.21-.2-.15-.48-.14-.71-.24-.39-.17-.58-.63-.56-1.05,.02-.42,.21-.82,.39-1.2,.29-.6,.58-1.2,.87-1.8,.17-.35,.35-.71,.64-.98,.62-.57,1.58-.53,2.41-.43,1.6,.2,3.22,.55,4.64,1.31,1.16,.62,2.29,1.57,2.89,2.77,.54,1.1-.26,2.52-.75,3.53Z"/>
            </g>
            <g>
              <path class="cls-16" d="M46.1,229.99h15.75c4.45,0,8.06,3.61,8.06,8.06v38.55h-31.88v-38.55c0-4.45,3.61-8.06,8.06-8.06Z"/>
              <g>
                <g>
                  <path class="cls-11" d="M70.21,229.95c2.82-1.36,6.21-.18,7.58,2.64l8.81,18.23,20.7-7.7c1.09,6.97,3.98,10.11,3.98,10.11l-25.49,10.05c-1.32,.51-2.71,.49-3.95,.04-1.35-.49-2.52-1.48-3.19-2.87l-11.08-22.92c-1.36-2.82-.18-6.21,2.64-7.58Z"/>
                  <path class="cls-28" d="M81.84,263.32c1.24,.45,2.63,.46,3.95-.04l9.44-3.72c-3.75-3.02-6.23-6.48-7.72-9.08l-.91,.34-3.41-7.05c-3.34-1.16-9.3-1.33-13.23-1.3l8.7,17.99c.67,1.39,1.84,2.38,3.19,2.87Z"/>
                  <path class="cls-32" d="M71.51,245.69l5.07,6.54,8.41-4.74-7.21-14.9c-1.16-2.4-3.79-3.59-6.28-3.06l-.26,.14,.27,16.02Z"/>
                  <path class="cls-11" d="M113.05,240.97c.45-.12,.93-.22,1.37-.1,.45,.13,.84,.57,.75,1.03-.15,.7-1.14,.78-1.62,1.3-.36,.39-.39,1-.24,1.52,.15,.51,.45,.97,.67,1.46,1.06,2.34,.14,5.4-2.05,6.75-.41,.25-.9,.46-1.37,.35-.6-.13-.97-.7-1.29-1.23-.85-1.4-1.71-2.82-2.22-4.38-.46-1.4-1.03-3.81,.45-4.69,1.61-.96,3.74-1.53,5.54-2Z"/>
                  <path class="cls-28" d="M110,250.94c.1,.03,.2,.06,.32,.08,.1,.02,.2-.05,.22-.16,.02-.1-.05-.2-.16-.22-.32-.05-.52-.17-.61-.36-.18-.38,.07-.98,.18-1.18,.03-.05,.03-.1,.02-.15-.02-.05-.05-.09-.1-.11-.39-.18-.61-.4-.65-.65-.06-.37,.31-.73,.31-.73,.05-.05,.07-.13,.05-.19-.02-.07-.08-.12-.15-.13-.31-.05-.53-.15-.63-.31-.11-.17-.06-.36-.06-.37,.42-1.85,4.48-1.52,4.52-1.51,.1,0,.2-.07,.21-.17,0-.1-.06-.19-.17-.21-.18-.02-4.42-.36-4.92,1.8,0,0-.1,.34,.11,.66,.12,.19,.31,.32,.58,.41-.13,.2-.27,.49-.22,.81,.05,.33,.29,.62,.69,.84-.13,.29-.33,.89-.11,1.36,.11,.23,.31,.39,.58,.49Z"/>
                  <path class="cls-28" d="M109.32,247.5s.07,.02,.11,0c.04,0,3.57-.87,4.68-.78,.1,0,.2-.07,.2-.17,0-.1-.07-.2-.17-.2-1.17-.1-4.65,.76-4.8,.79-.1,.03-.16,.13-.14,.23,.02,.06,.06,.11,.12,.13Z"/>
                  <path class="cls-28" d="M109.71,249.19s.07,.01,.1,0c.04,0,3.56-.79,4.58-.67,.1,.01,.2-.06,.21-.17,.01-.1-.06-.2-.17-.21-1.09-.13-4.56,.64-4.71,.68-.1,.02-.17,.12-.14,.23,.01,.07,.06,.12,.12,.14Z"/>
                  <path class="cls-28" d="M110.28,251.01s.09,.02,.13,0c.02,0,1.97-.76,3.68-.72,.1,0,.19-.08,.19-.18,0-.1-.08-.19-.18-.19-1.79-.04-3.75,.71-3.83,.74-.1,.04-.15,.15-.11,.25,.02,.05,.06,.09,.11,.11Z"/>
                  <path class="cls-28" d="M108.97,245.68c.06,.02,.13,.01,.18-.03,.21-.17,.34-.43,.34-.7,.57,0,1.07,0,1.56-.1,.61-.12,1.12-.35,1.5-.69,.21-.18,.33-.37,.38-.57,.08-.33-.05-.71-.34-.98-.26-.23-.58-.35-.86-.43-.84-.25-1.72-.31-2.53-.17-.1,.02-.17,.11-.16,.22,.02,.1,.11,.17,.22,.16,.76-.12,1.58-.07,2.37,.16,.24,.07,.51,.17,.71,.35,.19,.17,.28,.41,.23,.6-.03,.13-.12,.25-.27,.38-.33,.3-.77,.5-1.32,.6-.48,.09-.98,.1-1.53,.09-.06,0-.17,0-.26,.09-.08,.09-.08,.2-.08,.25,0,.17-.07,.34-.2,.44-.08,.07-.1,.18-.03,.27,.02,.03,.05,.05,.08,.06Z"/>
                </g>
                <path class="cls-37" d="M79.77,238.25l-2.76,35.77s-8.08,4.4-19.48,3.07c-11.4-1.33-13.9-6.36-13.9-6.36,0,0,1.97-35.1,2.3-35.44,.33-.35,1.68-11.88,18.18-9.52,16.5,2.36,15.66,12.49,15.66,12.49Z"/>
                <polygon class="cls-11" points="60.3 215.52 60.3 225.44 66.23 230.2 69.31 226.9 69.31 220.93 60.3 215.52"/>
                <path class="cls-28" d="M61.54,220.72l7.78,2.58v3.18c-4.34-.58-7.78-5.75-7.78-5.75Z"/>
                <rect class="cls-11" x="60.3" y="200.68" width="16.85" height="24.09" rx="7.36" ry="7.36" transform="translate(137.44 425.44) rotate(180)"/>
                <path class="cls-17" d="M60.6,214.06c.27,.67,1.17,1.21,1.7,.72,.19-.18,.27-.45,.34-.71,.35-1.41,.41-2.88,.18-4.31-.27-1.68-.9-3.56,.06-4.96,.63-.92,1.9-1.34,2.95-.98,.55,.19,1.02,.56,1.57,.74,1.1,.35,2.27-.12,3.41-.26,2.1-.27,4.4,.54,6.29-.43,1.05-.54,1.81-1.61,1.97-2.78,.05-.33,.04-.68-.08-.99-.24-.6-.89-.96-1.53-1.07-1.47-.27-3,.43-4.45,.06-.9-.23-1.67-.86-2.59-1-1.28-.2-2.49,.57-3.75,.86-1.29,.3-2.65,.09-3.94,.37-2.7,.59-4.54,3.25-5.04,5.96-.5,2.71,.08,5.5,.65,8.2,.21,.97,.41,1.94,.62,2.91,.17,.81,.4,1.7,1.1,2.14,.11,.07,.24,.13,.37,.12,.36-.04,.46-.51,.45-.87-.03-1.8-.32-3.54-.71-5.29,.21,.5,.22,1.07,.43,1.58Z"/>
                <path class="cls-11" d="M58.33,214.58c0,1.14,.92,2.06,2.06,2.06s2.06-.92,2.06-2.06-.92-2.06-2.06-2.06-2.06,.92-2.06,2.06Z"/>
                <g>
                  <path class="cls-11" d="M85.67,263.16c.13-.06,.29-.13,.41-.06,.1,.05,.13,.17,.17,.27,.26,.71,.89,1.32,1.64,1.39s1.55-.55,1.52-1.31c-.02-.51-.38-.94-.73-1.33,.67,.76,1.45,1.57,2.46,1.66,.12,.01,.25,0,.35-.05,.12-.07,.18-.2,.22-.33,.21-.63,.12-1.35-.22-1.92,.28,.27,.57,.55,.93,.69s.81,.13,1.09-.14c.45-.43,.22-1.17-.03-1.74-.27-.61-.55-1.23-.82-1.84-.31-.7-.63-1.41-1.1-2.02-.79-1.01-1.96-1.66-3.16-2.13-2.52-.99-5.3-1.33-7.98-.96-.17,.02-.35,.05-.51,.14-.33,.19-.46,.59-.54,.96-.69,2.87-.67,5.96,.12,8.81,.32,1.15,.74,1.47,1.97,1.36,1.49-.14,2.88-.81,4.2-1.47Z"/>
                  <path class="cls-11" d="M52.75,228.05c3.12-.28,5.88,2.01,6.16,5.13l1.84,20.16,22.09-.16c-1.44,6.91-1.51,11.46-1.51,11.46l-25.71,.08c-1.41,0-2.71-.5-3.71-1.35-1.1-.93-1.84-2.28-1.98-3.81l-2.31-25.36c-.28-3.12,2.01-5.88,5.13-6.16Z"/>
                  <path class="cls-5" d="M88.9,262.37s-1.25-2.68-2.03-3.68-1.92-.88-1.92-.88"/>
                  <path class="cls-5" d="M91.5,261.49l-1.77-3.91s-.81-1.47-2.28-1.71"/>
                  <path class="cls-37" d="M59.09,232.97c-.3-3.23-3.15-5.61-6.38-5.32-3.23,.29-5.61,3.15-5.32,6.39l1.53,16.78,11.66-1.49-1.49-16.36Z"/>
                  <path class="cls-4" d="M47.59,236.26l1.33,14.56s8.93-1.14,11.66-1.49l-1.44-15.82"/>
                </g>
                <path class="cls-4" d="M57.98,225.9l4,7.92,4.28-3.26,4.12,2.95s1.47-3.36,1.47-5.08"/>
                <polyline class="cls-4" points="65.66 231 65.42 243.85 68.22 243.85"/>
              </g>
            </g>
            <g>
              <path class="cls-16" d="M141.91,229.37h15.75c4.45,0,8.06,3.61,8.06,8.06v38.55h-31.88v-38.55c0-4.45,3.61-8.06,8.06-8.06Z" transform="translate(-33.35 23.02) rotate(-7.91)"/>
              <g>
                <path class="cls-22" d="M168.06,200.79c-1.47-.6-3.04-.92-4.63-.96-1.54-.03-3.11-.22-4.61,.24-2.11,.65-3.7,2.45-4.63,4.45-.66,1.42-1.02,2.96-1.3,4.5-.26,1.46-.6,2.89-.78,4.37-.39,3.19-.42,6.42-.93,9.59-.95,5.82-3.49,11.25-5.2,16.9-1.72,5.65-2.56,11.93-.16,17.32,.2,.46,.44,.92,.85,1.21,.37,.27,.84,.36,1.29,.44,2.82,.5,5.68,.74,8.55,.72,1.03,0,2.09-.05,3.04-.46,.84-.36,1.54-.98,2.14-1.66,2.28-2.6,3.23-6.07,4.11-9.41,.84-3.2,1.68-6.41,2.53-9.61,2.35-8.94,4.71-17.98,4.98-27.22,.09-3.15-.22-6.66-2.54-8.8-.77-.71-1.72-1.22-2.7-1.62Z"/>
                <g>
                  <path class="cls-8" d="M202.07,243.2c-23.22,3.36-30.14-13.15-30.44-13.91-.92-2.38-3.6-3.58-6-2.67-2.4,.92-3.61,3.6-2.69,6.01,.25,.64,2.57,6.45,8.7,11.76,5.53,4.79,15.25,10.03,30.48,8.19,.42-.05,.85-.11,1.28-.17,.27-4.85-1.33-9.21-1.33-9.21Z"/>
                  <path class="cls-8" d="M206.41,241.08c.61-.23,1.26-.47,1.89-.32,.63,.15,1.18,.85,.91,1.44-.23,.5-.97,.85-.8,1.38,.05,.17,.19,.29,.33,.39,1.71,1.33,3.99,1.58,5.99,2.43,.9,.38,1.83,.99,2.05,1.94,.17,.72-.12,1.5-.6,2.06-.49,.56-1.15,.94-1.82,1.26-3.57,1.69-7.8,1.9-11.52,.58-.42-.15-.84-.32-1.15-.63-.3-.3-.48-.71-.64-1.11-.33-.79-.66-1.58-.78-2.42-.27-1.74,.44-3.5,1.6-4.78,1.35-1.48,2.81-1.55,4.55-2.22Z"/>
                  <path class="cls-38" d="M176.09,235.8c-3.08-3.19-4.34-6.2-4.47-6.52-.92-2.38-3.6-3.58-6-2.67-2.4,.92-3.61,3.6-2.69,6.01,.21,.56,1.99,4.99,6.45,9.62,1.36-.97,4.34-3.3,6.71-6.44Z"/>
                  <path class="cls-27" d="M169.4,242.39s-.1-.01-.13-.05c-4.49-4.67-6.29-9.17-6.48-9.67-.03-.08,0-.17,.09-.2,.08-.03,.17,.01,.2,.09,.19,.49,1.94,4.87,6.32,9.47,1.26-.91,4.16-3.18,6.49-6.22-3.12-3.26-4.36-6.34-4.41-6.47-.03-.08,0-.17,.09-.2,.08-.03,.17,0,.2,.09,.05,.13,1.29,3.21,4.44,6.46,.05,.05,.06,.14,.01,.2-2.43,3.22-5.53,5.6-6.74,6.47-.02,.02-.05,.02-.07,.03Z"/>
                </g>
                <path class="cls-38" d="M173.78,234.88c.48,3.13,.22,6.32,.15,9.49-.17,6.99,.06,14.15,2.38,20.79,.79,2.25,1.51,4.26-.26,6.24-3.53,3.92-11.87,4.83-16.72,4.97-3.1,.09-13.43-.09-14.75-4.42-.43-1.41,1.13-4.59,1.4-6.1,.58-3.23,.26-6.93,.26-10.24,0-4.3-.06-8.93-1.08-13.12-.95-3.92-.82-7.76,.91-11.53,.88-1.93,2.18-3.76,4.05-4.76,2.49-1.33,5.5-1.75,8.28-1.76,3.26-.01,7.54,.16,10.47,1.73,2.76,1.48,4.27,5.14,4.81,8.04,.04,.22,.08,.44,.11,.66Z"/>
                <g>
                  <g>
                    <path class="cls-33" d="M163.79,220.88l.17,5.99s.04,2.88-4.38,2.84c-4.42-.04-4.7-4.05-4.7-4.05l-.28-9.95,9.19,5.17Z"/>
                    <path class="cls-19" d="M155.98,220.69l7.87,2.36,.09,3.19c-4.37-.46-7.96-5.55-7.96-5.55Z"/>
                    <rect class="cls-33" x="154.51" y="200.38" width="16.9" height="24.17" rx="6.31" ry="6.31" transform="translate(331.83 420.26) rotate(178.39)"/>
                    <path class="cls-33" d="M152.6,214.61c.03,1.14,.99,2.04,2.13,2.01,1.14-.03,2.04-.99,2.01-2.13-.03-1.14-.99-2.04-2.13-2.01-1.14,.03-2.04,.99-2.01,2.13Z"/>
                  </g>
                  <path class="cls-22" d="M171.72,203.49s-7.13,9.68-17.82,9.01c0,0-2.36-12.77,8.03-13.15,0,0,5.39-.69,9.79,4.14Z"/>
                </g>
                <g>
                  <path class="cls-33" d="M177.76,257.24c-22.42-6.94-21.57-24.82-21.52-25.64,.19-2.55-1.72-4.78-4.27-4.98-2.56-.2-4.81,1.71-5.01,4.27-.05,.69-.44,6.93,2.81,14.36,2.93,6.7,9.47,15.61,24,20.49,.4,.14,.81,.27,1.23,.4,2.33-4.26,2.76-8.89,2.76-8.89Z"/>
                  <path class="cls-38" d="M157.48,239.41c-1.41-4.2-1.26-7.46-1.24-7.8,.19-2.55-1.72-4.78-4.27-4.98-2.56-.2-4.81,1.71-5.01,4.27-.05,.59-.34,5.36,1.69,11.45,1.64-.3,5.34-1.12,8.83-2.93Z"/>
                  <path class="cls-27" d="M148.61,242.49s-.08-.05-.1-.1c-2.05-6.15-1.74-10.98-1.7-11.51,0-.08,.08-.15,.17-.14,.09,0,.15,.08,.14,.17-.04,.52-.35,5.23,1.64,11.26,1.53-.28,5.13-1.09,8.53-2.83-1.42-4.28-1.21-7.6-1.2-7.74,0-.09,.08-.15,.17-.14,.09,0,.15,.08,.14,.17,0,.14-.21,3.46,1.23,7.74,.02,.07,0,.15-.08,.19-3.58,1.86-7.4,2.68-8.87,2.95-.03,0-.05,0-.08,0Z"/>
                  <path class="cls-33" d="M182.46,257.29c.65,.05,1.34,.12,1.85,.52,.51,.4,.7,1.28,.2,1.69-.43,.36-1.24,.35-1.31,.9-.02,.17,.05,.34,.13,.5,.97,1.93,2.93,3.15,4.36,4.76,.65,.73,1.23,1.68,1.02,2.63-.15,.73-.75,1.3-1.43,1.6s-1.44,.36-2.19,.36c-3.95,0-7.87-1.63-10.66-4.42-.31-.31-.62-.65-.77-1.06-.14-.4-.13-.85-.11-1.28,.04-.85,.09-1.71,.33-2.53,.51-1.69,1.89-2.97,3.5-3.63,1.86-.76,3.21-.19,5.07-.05Z"/>
                </g>
              </g>
            </g>
            <g>
              <path class="cls-16" d="M367.72,228.44h15.75c4.45,0,8.06,3.61,8.06,8.06v38.55h-31.88v-38.55c0-4.45,3.61-8.06,8.06-8.06Z"/>
              <path class="cls-33" d="M355.89,230.79c-2.17-2.21-5.73-2.25-7.95-.08l-14.32,14.04-16.86-13.87c-3.35,6.14-7.05,8.1-7.05,8.1l20.48,17.66c1.06,.91,2.36,1.36,3.67,1.36,1.42,0,2.85-.54,3.94-1.61l18.01-17.66c2.22-2.17,2.25-5.73,.08-7.95Z"/>
              <path class="cls-14" d="M355.89,230.79c-2.17-2.21-5.73-2.25-7.95-.08l-13.53,13.27c1.07,2.69,3.17,7.18,6.1,9.75l15.3-15c2.22-2.17,2.25-5.73,.08-7.95Z"/>
              <path class="cls-33" d="M312.09,226.9c-.38-.26-.79-.52-1.25-.55-.46-.03-.97,.25-1.04,.71-.1,.7,.8,1.1,1.08,1.75,.21,.49,.02,1.06-.29,1.49-.31,.43-.74,.76-1.11,1.13-1.77,1.82-1.93,4.98-.35,6.97,.3,.38,.68,.73,1.16,.79,.6,.07,1.14-.33,1.61-.71,1.26-1.02,2.54-2.06,3.53-3.34,.9-1.16,2.24-3.21,1.15-4.52-1.18-1.43-2.97-2.68-4.5-3.72Z"/>
              <path class="cls-21" d="M311.77,237.04c-.1,0-.21-.01-.32-.03-.1-.02-.17-.12-.15-.22,.02-.1,.12-.17,.22-.15,.31,.06,.54,.02,.69-.13,.3-.29,.26-.94,.23-1.16,0-.05,0-.1,.04-.15,.03-.04,.08-.07,.13-.07,.43-.04,.71-.17,.82-.38,.18-.33-.05-.78-.05-.79-.03-.06-.03-.14,.02-.2,.04-.06,.11-.08,.19-.07,.31,.06,.54,.04,.69-.08,.16-.12,.18-.31,.18-.32,.23-1.87-3.66-2.91-3.7-2.92-.1-.03-.16-.13-.13-.23,.03-.1,.12-.16,.23-.13,.17,.05,4.25,1.14,3.98,3.32,0,0-.03,.35-.32,.58-.18,.14-.4,.2-.68,.19,.06,.23,.09,.54-.07,.83-.16,.29-.47,.48-.93,.55,.02,.32,.01,.94-.35,1.3-.18,.18-.42,.27-.7,.27Z"/>
              <path class="cls-21" d="M313.54,234.06s-.07,0-.1-.03c-.03-.02-3.04-2.01-4.1-2.29-.1-.03-.16-.13-.13-.23,.03-.1,.13-.16,.23-.13,1.12,.3,4.08,2.26,4.21,2.34,.09,.06,.11,.17,.05,.26-.04,.05-.1,.08-.16,.08Z"/>
              <path class="cls-21" d="M312.62,235.5s-.07,0-.1-.03c-.03-.02-3.05-1.93-4.05-2.16-.1-.02-.16-.12-.14-.23,.02-.1,.12-.16,.23-.14,1.06,.25,4.04,2.13,4.16,2.21,.09,.05,.11,.17,.06,.26-.04,.06-.1,.09-.16,.09Z"/>
              <path class="cls-21" d="M311.48,237.01s-.09-.01-.12-.05c-.02-.01-1.58-1.37-3.19-1.9-.1-.03-.15-.14-.12-.24,.03-.1,.14-.15,.24-.12,1.68,.56,3.25,1.92,3.32,1.97,.08,.07,.09,.19,.02,.26-.04,.04-.09,.06-.14,.06Z"/>
              <path class="cls-21" d="M314.48,232.47c-.06,0-.12-.03-.16-.09-.14-.23-.17-.52-.09-.77-.53-.19-.99-.37-1.42-.62-.53-.31-.93-.7-1.17-1.15-.13-.24-.19-.46-.17-.66,.03-.33,.29-.65,.64-.8,.32-.13,.65-.13,.94-.11,.87,.05,1.7,.29,2.42,.69,.09,.05,.12,.16,.07,.25-.05,.09-.16,.12-.25,.07-.67-.37-1.45-.59-2.26-.64-.25-.02-.53-.02-.78,.09-.23,.1-.4,.29-.41,.49-.01,.13,.03,.27,.12,.45,.21,.39,.56,.72,1.03,1,.42,.25,.88,.42,1.4,.6,.05,.02,.16,.06,.21,.18,.05,.11,0,.21-.01,.26-.06,.16-.04,.34,.04,.47,.05,.09,.03,.2-.06,.26-.03,.02-.07,.03-.1,.03Z"/>
              <path class="cls-10" d="M343.6,238.63l2.74,35.43s8,4.36,19.29,3.04c11.29-1.31,13.77-6.3,13.77-6.3,0,0-1.95-34.76-2.28-35.11-.33-.34-1.66-11.77-18-9.43-16.34,2.33-15.51,12.37-15.51,12.37Z"/>
              <rect class="cls-7" x="28.82" y="270.21" width="370.67" height="8.78"/>
              <g>
                <g>
                  <rect class="cls-24" x="60.4" y="269.52" width="49.92" height="2.43" rx=".5" ry=".5" transform="translate(170.71 541.47) rotate(180)"/>
                  <path class="cls-20" d="M86.77,271.91h40.73c1.66,0,3.23-1.36,3.49-3.02l3.52-22.19c.26-1.66-.88-3.02-2.54-3.02h-40.73c-1.66,0-3.23,1.36-3.49,3.02l-3.52,22.19c-.26,1.66,.88,3.02,2.54,3.02Z"/>
                </g>
                <circle class="cls-2" cx="110.26" cy="257.74" r="3.75"/>
              </g>
              <path class="cls-29" d="M375.32,241.03s2.5,29.92-4.83,30.51c-7.33,.59-19.7,0-19.7,0,0,0,14.92-2.86,16.56-11.16,1.64-8.3,7.97-19.35,7.97-19.35Z"/>
              <path class="cls-33" d="M359.23,234.89c5.71-.8,6.51-5.93,6.51-8.81-1.88-.21-4.07-.19-6.62,.18-2.96,.42-5.35,1.1-7.3,1.93,.18,2.43,1.26,7.56,7.41,6.7Z"/>
              <polygon class="cls-33" points="362.89 216.31 362.89 226.14 358.36 230.27 353.97 227.59 353.97 221.67 362.89 216.31"/>
              <path class="cls-15" d="M361.67,221.27l-7.7,2.55v3.15c4.3-.57,7.7-5.7,7.7-5.7Z"/>
              <rect class="cls-33" x="346.21" y="201.41" width="16.69" height="23.86" rx="6.31" ry="6.31"/>
              <path class="cls-25" d="M345.12,203.87c-.43,.49-.77,1.18-.5,1.77,.14,.31,.42,.53,.71,.7,1.02,.59,2.33,.66,3.41,.18-.34,.33-.3,.91-.01,1.28,.29,.37,.76,.55,1.22,.63,1.45,.23,2.91-.47,3.97-1.48-.04,.92,.77,1.79,1.69,1.82,.83,.03,1.63-.54,2.44-.36,.24,.4-.14,1.06,.24,1.32,.09,.06,.21,.08,.32,.09,.77,.07,1.69-.06,2.19,.53,.48,.57,.22,1.42,.02,2.14-.18,.66-.28,1.4,.08,1.98,.36,.58,1.34,.76,1.7,.18,.1-.16,.14-.36,.24-.52,.11-.16,.34-.27,.49-.16,.12,.08,.13,.25,.13,.39-.04,.86-.57,1.61-.87,2.41s-.27,1.9,.49,2.31c.23,.12,.49,.16,.74,.2,.8,.11,1.69,.13,2.34-.35,.62-.46,.86-1.26,1.06-2.01,.08-.29,.16-.59,.11-.89-.04-.3-.25-.59-.54-.65-.36-.99,.72-2.22,.08-3.06-.14-.18-.34-.31-.52-.46-.51-.44-.77-1.12-.86-1.79-.09-.67-.04-1.35-.03-2.03,.02-1.31-.11-2.63-.4-3.91-.12-.53-.27-1.06-.6-1.5-.32-.43-.86-.75-1.39-.67-.24-.98-.75-1.93-1.6-2.48-.85-.54-2.06-.58-2.82,.08-.17,.15-.33,.33-.55,.37-.18,.03-.35-.04-.52-.11-1.55-.63-3.35-1.16-4.85-.42-.23,.11-.45,.25-.69,.28-.25,.03-.5-.05-.75-.12-.59-.15-1.27-.17-1.76,.19-.54,.41-.31,.86-.35,1.4-.05,.61-.39,.58-.97,.79-1.14,.43-2.27,.98-3.09,1.91Z"/>
              <path class="cls-33" d="M365.61,215.18c0,1.13-.92,2.05-2.05,2.05s-2.05-.92-2.05-2.05,.92-2.05,2.05-2.05,2.05,.92,2.05,2.05Z"/>
              <g>
                <g>
                  <path class="cls-33" d="M370.43,229.05c-3.11-.27-5.87,2.03-6.15,5.15l-2.15,24.34-22.83,1.47s-.75,6.02,.73,11.31l27.68-1.78c2.79-.18,5.04-2.37,5.28-5.16l2.58-29.19c.28-3.12-2.03-5.87-5.15-6.15Z"/>
                  <path class="cls-33" d="M337.01,271.39c-.69-.08-1.4-.17-1.97-.55-.57-.39-.94-1.17-.63-1.79,.16-.32,.49-.58,.5-.94,.02-.45-.45-.74-.72-1.11-.48-.67-.21-1.69,.42-2.22,.21-.18,.47-.34,.54-.6,.16-.59-.72-1.09-.55-1.67,.13-.45,.78-.57,.92-1.01,.08-.24-.03-.5-.01-.75,.03-.42,.4-.76,.8-.88,.4-.12,.84-.08,1.26-.03,.66,.07,1.32,.14,1.98,.22,.39,.04,.79,.09,1.14,.27,.75,.4,1.03,1.31,1.21,2.13,.35,1.58,.56,3.21,.33,4.81-.19,1.31-.7,2.69-1.63,3.65-.85,.88-2.46,.6-3.57,.48Z"/>
                </g>
                <path class="cls-10" d="M370.46,228.76c-3.17-.28-5.99,2.07-6.27,5.26l-1.8,20.43c2.03,.9,6.74,2.78,11.35,3.09l1.99-22.5c.28-3.18-2.07-5.99-5.26-6.27Z"/>
                <path class="cls-3" d="M364.04,235.64l-1.66,18.81s6.96,2.98,11.35,3.09l1.87-19.36"/>
              </g>
              <g>
                <g>
                  <rect class="cls-24" x="309.74" y="269.52" width="49.92" height="2.43" rx=".5" ry=".5"/>
                  <path class="cls-18" d="M333.28,271.91h-40.73c-1.66,0-3.23-1.36-3.49-3.02l-3.52-22.19c-.26-1.66,.88-3.02,2.54-3.02h40.73c1.66,0,3.23,1.36,3.49,3.02l3.52,22.19c.26,1.66-.88,3.02-2.54,3.02Z"/>
                </g>
                <g>
                  <path class="cls-2" d="M307.56,258.37c-.2,.37-.45,.72-.59,1.12-.14,.4-.14,.88,.13,1.2,.13,.15,.31,.25,.49,.32,.96,.38,2.12,0,2.82-.76,.7-.76,1-1.83,1.01-2.86,0-.83-.21-1.75-.89-2.22-.21-.15-.46-.24-.71-.29-.4-.08-.84-.06-1.19,.15-.51,.31-.55,.89-.6,1.42-.07,.68-.15,1.3-.48,1.92Z"/>
                  <path class="cls-2" d="M309.29,253.94c-.03-.21-.03-.43,.04-.63,.07-.2,.22-.39,.42-.44,.07-.02,.15-.02,.22-.03,.17,0,.35,.02,.47,.14,.1,.1,.14,.24,.14,.38,0,.14-.06,.27-.12,.39-.14,.27-.38,.52-.67,.64-.41,.17-.46-.07-.51-.44Z"/>
                </g>
              </g>
            </g>
            <g>
              <path class="cls-1" d="M86.52,161.65c0-11.99-9.72-21.72-21.72-21.72s-21.72,9.72-21.72,21.72,9.12,21.1,20.58,21.69l3.15,7.74,3.75-8.49c9.19-2.53,15.95-10.94,15.95-20.94Z"/>
              <path class="cls-7" d="M72.45,157.83v-5.11h-5.11c0-2.12-1.72-3.84-3.84-3.84s-3.84,1.72-3.84,3.84h-5.11v17.91h5.11c0-2.12,1.72-3.84,3.84-3.84s3.84,1.72,3.84,3.84h5.11v-5.11c2.12,0,3.84-1.72,3.84-3.84s-1.72-3.84-3.84-3.84Z"/>
            </g>
            <g>
              <path class="cls-1" d="M399.1,174.05c5.05-10.88,.32-23.79-10.56-28.84-10.88-5.05-23.79-.32-28.84,10.56-4.89,10.54-.61,22.97,9.54,28.34l-.4,8.35,6.97-6.12c9.4,1.58,19.07-3.21,23.28-12.28Z"/>
              <path class="cls-7" d="M388.83,160.96c-.33,0-.64,.05-.94,.13v-5.24h-5.11c0,2.12-1.72,3.84-3.84,3.84s-3.84-1.72-3.84-3.84h-5.11v5.11c-2.12,0-3.84,1.72-3.84,3.84s1.72,3.84,3.84,3.84v5.11h5.22c0-2.12,1.72-3.84,3.84-3.84s3.84,1.72,3.84,3.84h5.01v-5.24c.3,.08,.62,.13,.94,.13,2.12,0,3.84-1.72,3.84-3.84s-1.72-3.84-3.84-3.84Z"/>
            </g>
            <g>
              <path class="cls-1" d="M127.17,175.58c-5.05-10.88-.32-23.79,10.56-28.84s23.79-.32,28.84,10.56c4.89,10.54,.61,22.97-9.54,28.34l.4,8.35-6.97-6.12c-9.4,1.58-19.07-3.21-23.28-12.28Z"/>
              <path class="cls-7" d="M150.85,158.33c0-2.12-1.72-3.84-3.84-3.84s-3.84,1.72-3.84,3.84h-5.11v17.91h5.11c0-2.12,1.72-3.84,3.84-3.84s3.84,1.72,3.84,3.84h5.11v-17.91h-5.11Z"/>
            </g>
            <g>
              <path class="cls-1" d="M308.39,187.23c9.17-7.73,10.33-21.44,2.59-30.6-7.73-9.17-21.44-10.33-30.6-2.6-8.88,7.49-10.25,20.57-3.3,29.72l-3.88,7.4,8.91-2.61c7.86,5.4,18.65,5.14,26.29-1.31Z"/>
              <path class="cls-7" d="M303.03,167.43v-5.11h-5.11c0-2.12-1.72-3.84-3.84-3.84s-3.84,1.72-3.84,3.84h-5.11v5.11c2.12,0,3.84,1.72,3.84,3.84s-1.72,3.84-3.84,3.84v5.11h5.11c0-2.12,1.72-3.84,3.84-3.84s3.84,1.72,3.84,3.84h5.11v-5.11c2.12,0,3.84-1.72,3.84-3.84s-1.72-3.84-3.84-3.84Z"/>
            </g>
          </g>
          <g>
            <g>
              <g>
                <path class="cls-20" d="M194.87,175.61s-.23,8.82,19.28,8.82,18.6-8.82,18.6-8.82h-37.88Z"/>
                <rect class="cls-16" x="189.68" y="152.65" width="48.78" height="25.43" rx="4.71" ry="4.71"/>
                <path class="cls-7" d="M275.32,58.63c-1.35-19.08-13.13-56.29-58.97-58.52v-.11c-.74,0-1.47,0-2.19,.03-.72-.02-1.45-.03-2.19-.03V.11c-45.84,2.23-57.62,39.45-58.97,58.52-1.39,19.67,8.83,35.01,17.35,50.34,8.52,15.34,11.62,35.86,12.93,43.3,1.32,7.44,8.05,7.2,8.05,7.2h20.63s2.19,0,2.19,0h2.19s0,0,0,0h20.63s6.74,.23,8.05-7.2c1.32-7.44,4.41-27.96,12.93-43.3,8.52-15.34,18.74-30.67,17.35-50.34Z"/>
              </g>
              <path class="cls-9" d="M198.6,161.29c5.27-16.45,7.87-33.74,7.66-51.01-.08-6.82-.63-13.78-3.34-20.03-.49-1.13-1.33-2.4-2.56-2.3-1.08,.09-1.75,1.21-2.1,2.24-1.3,3.81-.77,8.19,1.39,11.58,2.16,3.39,5.91,5.72,9.91,6.16,1.06,.12,2.16,.1,3.17-.27,2.08-.77,3.33-2.89,4.13-4.96,1.72-4.52,2.03-9.56,.88-14.26-.29-1.17-1-2.56-2.2-2.48-.85,.06-1.43,.86-1.81,1.62-2.05,4.07-1.82,8.97-.5,13.33,.58,1.91,1.39,3.82,2.82,5.22,3.48,3.42,9.69,2.54,13.22-.84,3.53-3.38,4.84-8.48,5.18-13.35,.16-2.34-.44-5.41-2.77-5.73-2.39-.33-3.78,2.6-4.31,4.95-4.67,20.44-5.71,41.7-3.04,62.49,.5,3.92,1.21,8,3.57,11.17"/>
              <path class="cls-36" d="M170.53,25.1c-1.71,2.02-3.39,4.16-4.22,6.68-.83,2.52-.67,5.51,1.04,7.54,2.4,2.86,7.01,2.82,10.3,1.03,3.29-1.78,5.63-4.86,8.1-7.66,3.89-4.41,8.51-8.44,14.11-10.25,2.12-.69,4.35-1.04,6.43-1.86,2.08-.82,4.07-2.22,4.9-4.29,1.12-2.78-.25-6.15-2.68-7.91-5.88-4.25-13.51-.22-19.26,2.23-7.53,3.2-13.45,8.28-18.71,14.49Z"/>
            </g>
            <path class="cls-31" d="M169.99,60.43v-5.11h-5.11c0-2.12-1.72-3.84-3.84-3.84s-3.84,1.72-3.84,3.84h-5.11v17.91h5.11c0-2.12,1.72-3.84,3.84-3.84s3.84,1.72,3.84,3.84h5.11v-5.11c2.12,0,3.84-1.72,3.84-3.84s-1.72-3.84-3.84-3.84Z"/>
            <path class="cls-31" d="M273.18,53.88c-.33,0-.64,.05-.94,.13v-5.24h-5.11c0,2.12-1.72,3.84-3.84,3.84s-3.84-1.72-3.84-3.84h-5.11v5.11c-2.12,0-3.84,1.72-3.84,3.84s1.72,3.84,3.84,3.84v5.11h5.22c0-2.12,1.72-3.84,3.84-3.84s3.84,1.72,3.84,3.84h5.01v-5.24c.3,.08,.62,.13,.94,.13,2.12,0,3.84-1.72,3.84-3.84s-1.72-3.84-3.84-3.84Z"/>
            <path class="cls-31" d="M188.01,121.1c0-2.12-1.72-3.84-3.84-3.84s-3.84,1.72-3.84,3.84h-5.11v17.91h5.11c0-2.12,1.72-3.84,3.84-3.84s3.84,1.72,3.84,3.84h5.11v-17.91h-5.11Z"/>
            <path class="cls-31" d="M251.07,118.74v-5.11h-5.11c0-2.12-1.72-3.84-3.84-3.84s-3.84,1.72-3.84,3.84h-5.11v5.11c2.12,0,3.84,1.72,3.84,3.84s-1.72,3.84-3.84,3.84v5.11h5.11c0-2.12,1.72-3.84,3.84-3.84s3.84,1.72,3.84,3.84h5.11v-5.11c2.12,0,3.84-1.72,3.84-3.84s-1.72-3.84-3.84-3.84Z"/>
          </g>
        </g>
      </g>
    </g>
  </g>
</svg>