<?xml version="1.0" encoding="UTF-8"?>
<svg id="Capa_2" data-name="Capa 2" xmlns="http://www.w3.org/2000/svg" viewBox="0 0 81.97 81.97">
  <defs>
    <style>
      .cls-1, .cls-2, .cls-3, .cls-4, .cls-5, .cls-6 {
        fill-rule: evenodd;
      }

      .cls-1, .cls-7 {
        fill: #b0d2e3;
      }

      .cls-2 {
        fill: #fff;
      }

      .cls-3 {
        fill: #dd8270;
      }

      .cls-4 {
        fill: #c18705;
      }

      .cls-8, .cls-5 {
        fill: #676665;
      }

      .cls-6 {
        fill: #ffb703;
      }
    </style>
  </defs>
  <g id="Layer_1" data-name="Layer 1">
    <g>
      <path class="cls-6" d="M40.98,81.97c22.57,0,40.99-18.41,40.99-40.99S63.55,0,40.98,0,0,18.41,0,40.98s18.41,40.99,40.98,40.99h0Z"/>
      <path class="cls-2" d="M31.51,64.6h19.05c0-28.93,2.92-31.4-9.52-57.53h0c-12.44,26.13-9.53,28.6-9.53,57.53h0Z"/>
      <path class="cls-5" d="M34.54,22.32h12.99c-1.47-4.2-3.55-9.06-6.49-15.24-2.95,6.18-5.03,11.04-6.5,15.24h0Z"/>
      <path class="cls-5" d="M46.54,35.84c0-3.05-2.47-5.51-5.51-5.51s-5.51,2.47-5.51,5.51,2.47,5.51,5.51,5.51,5.51-2.47,5.51-5.51h0Zm-5.51-4.25c2.35,0,4.25,1.9,4.25,4.25s-1.9,4.25-4.25,4.25-4.26-1.9-4.26-4.25,1.91-4.25,4.26-4.25h0Z"/>
      <path class="cls-1" d="M45.29,35.84c0-2.35-1.9-4.25-4.25-4.25s-4.26,1.9-4.26,4.25,1.91,4.25,4.26,4.25,4.25-1.9,4.25-4.25h0Z"/>
      <path class="cls-5" d="M50.56,64.6c1.4,2.42,2.79,4.84,4.19,7.26v-16.3c-1.34-1.33-2.68-2.66-4.02-4-.05,2.51-.09,5.01-.12,7.19-.03,2.17-.04,4.01-.05,5.84h0Z"/>
      <path class="cls-5" d="M31.51,64.6c-1.4,2.42-2.79,4.84-4.19,7.26v-16.3c1.34-1.33,2.68-2.66,4.02-4,.05,2.51,.09,5.01,.12,7.19,.03,2.17,.04,4.01,.05,5.84h0Z"/>
      <rect class="cls-7" x="31.49" y="58.76" width="19.12" height="2.92"/>
      <rect class="cls-7" x="31.49" y="54.95" width="19.12" height="2.92"/>
      <rect class="cls-8" x="40.65" y="51.57" width=".76" height="20.29"/>
      <path class="cls-3" d="M42.38,65.58h2.81c1.54,0,2.81,1.26,2.81,2.81v6.46h-2.81c-1.54,0-2.81-1.26-2.81-2.81v-6.46Z"/>
      <path class="cls-3" d="M39.73,65.58h-2.81c-1.55,0-2.81,1.26-2.81,2.81v6.46h2.81c1.54,0,2.81-1.26,2.81-2.81v-6.46Z"/>
      <path class="cls-4" d="M50.73,51.57l4.02,4v16.3l-4.19-7.26h-9.14v7.26h-.76v-7.26h-9.14l-4.19,7.26,9.94,9.93c1.23,.11,2.48,.17,3.73,.17,20.42,0,37.35-14.94,40.47-34.47L41.04,7.07c2.94,6.18,5.03,11.04,6.49,15.24,3.65,10.43,3.47,16.79,3.2,29.25h0Zm-13.81,14.01h2.81v6.46c0,1.55-1.26,2.81-2.81,2.81h-2.81v-6.46c0-1.54,1.26-2.81,2.81-2.81h0Zm5.46,0h2.81c1.54,0,2.81,1.26,2.81,2.81v6.46h-2.81c-1.54,0-2.81-1.26-2.81-2.81v-6.46Z"/>
    </g>
  </g>
</svg>