<?xml version="1.0" encoding="UTF-8"?>
<svg id="Capa_2" data-name="Capa 2" xmlns="http://www.w3.org/2000/svg" viewBox="0 0 529.16 120.51">
  <defs>
    <style>
      .cls-1 {
        fill: #ffb703;
      }

      .cls-2 {
        fill: #023047;
      }
    </style>
  </defs>
  <g id="Capa_1-2" data-name="Capa 1">
    <g>
      <polygon class="cls-1" points="79.28 84.8 79.28 100.22 0 100.22 0 88.17 10.66 86.1 10.66 14.18 0 12.12 0 0 77.76 0 77.76 27.05 62.35 27.05 61.46 15.49 30.76 15.49 30.76 40.67 64.69 40.67 64.69 56.16 30.76 56.16 30.76 84.8 79.28 84.8"/>
      <path class="cls-2" d="M167.03,120.51v-9.6l7.69-1.64V50.05l-8.51-1.64v-9.6h23.12l.76,6.87c1.75-2.54,3.85-4.51,6.33-5.89,2.47-1.38,5.42-2.07,8.83-2.07,4.76,0,8.83,1.3,12.21,3.9,3.38,2.6,5.97,6.23,7.77,10.88,1.8,4.65,2.7,10.09,2.7,16.3v1.15c0,5.82-.9,10.9-2.7,15.24-1.8,4.34-4.4,7.73-7.8,10.14-3.4,2.42-7.5,3.63-12.3,3.63-3.16,0-5.95-.57-8.37-1.72-2.42-1.15-4.48-2.83-6.19-5.04v17.07l7.69,1.64v9.6h-31.25Zm33.37-33.75c4.07,0,7.02-1.51,8.86-4.53,1.84-3.02,2.75-7.11,2.75-12.27v-1.15c0-3.74-.42-7.01-1.25-9.79-.84-2.78-2.12-4.96-3.85-6.54-1.73-1.58-3.93-2.37-6.63-2.37-2.18,0-4.1,.49-5.75,1.47-1.65,.98-2.97,2.38-3.95,4.2v25.85c.98,1.67,2.3,2.94,3.95,3.82,1.65,.87,3.61,1.31,5.86,1.31Z"/>
      <path class="cls-2" d="M236.23,97.82v-9.54l7.63-1.64V50.05l-8.45-1.64v-9.6h23.29l.6,7.31,.11,1.31c1.45-3.2,3.25-5.62,5.4-7.25,2.14-1.64,4.71-2.45,7.69-2.45,.94,0,1.98,.08,3.11,.25,1.13,.16,2.13,.37,3,.63l-1.69,14.67-7.91-.44c-2.26-.11-4.08,.27-5.48,1.15-1.4,.87-2.64,2.13-3.73,3.76v28.9l7.63,1.64v9.54h-31.19Z"/>
      <path class="cls-2" d="M310.5,98.97c-5.64,0-10.56-1.25-14.78-3.74-4.22-2.49-7.48-5.92-9.79-10.28-2.31-4.36-3.46-9.34-3.46-14.94v-2.18c0-5.85,1.09-11.04,3.27-15.57,2.18-4.53,5.26-8.09,9.24-10.69,3.98-2.6,8.68-3.88,14.1-3.84,5.34,0,9.83,1.05,13.47,3.16,3.63,2.11,6.4,5.14,8.29,9.11,1.89,3.96,2.83,8.76,2.83,14.4v8.67h-34.68l-.11,.33c.22,2.58,.86,4.88,1.94,6.9,1.07,2.02,2.59,3.6,4.55,4.74,1.96,1.15,4.34,1.72,7.14,1.72s5.63-.37,8.15-1.12c2.53-.74,4.99-1.84,7.39-3.3l4.31,9.81c-2.44,1.96-5.5,3.59-9.19,4.88-3.69,1.29-7.92,1.94-12.68,1.94Zm-11.4-36.43h19.69v-1.42c0-2.4-.32-4.46-.95-6.19-.64-1.73-1.65-3.06-3.05-4.01s-3.21-1.42-5.43-1.42-3.89,.55-5.34,1.66c-1.45,1.11-2.59,2.63-3.41,4.55-.82,1.93-1.37,4.11-1.66,6.54l.16,.27Z"/>
      <path class="cls-2" d="M340.44,97.82v-9.54l7.63-1.64V50.05l-8.45-1.64v-9.6h23.28l.71,8.45c1.96-3.02,4.39-5.36,7.28-7.03,2.89-1.67,6.19-2.51,9.9-2.51,5.85,0,10.43,1.87,13.74,5.62,3.31,3.74,4.96,9.62,4.96,17.61v25.68l7.64,1.64v9.54h-30.43v-9.54l6.82-1.64v-25.63c0-3.96-.78-6.77-2.34-8.42-1.56-1.65-3.89-2.48-6.98-2.48-2.29,0-4.28,.48-5.97,1.45-1.69,.96-3.1,2.34-4.23,4.12v30.97l6.43,1.64v9.54h-29.99Z"/>
      <path class="cls-2" d="M434.34,98.97c-4.69,0-8.72-1.21-12.08-3.63-3.36-2.42-5.94-5.8-7.72-10.14-1.78-4.34-2.67-9.42-2.67-15.24v-1.15c0-6.22,.9-11.65,2.7-16.3,1.8-4.65,4.37-8.28,7.72-10.88,3.34-2.6,7.34-3.9,12-3.9,3.24,0,6.07,.65,8.51,1.94,2.43,1.29,4.54,3.12,6.33,5.48V23.99l-8.51-1.64V12.76h24.43V86.64l7.63,1.64v9.54h-21.43l-1.2-7.2c-1.85,2.73-4.06,4.8-6.63,6.22-2.56,1.42-5.59,2.13-9.08,2.13Zm4.74-12.38c2.22,0,4.16-.47,5.83-1.42,1.67-.94,3.07-2.31,4.2-4.09v-25.03c-1.09-1.89-2.47-3.35-4.14-4.39-1.67-1.04-3.6-1.55-5.78-1.55-2.65,0-4.83,.79-6.52,2.37-1.69,1.58-2.93,3.77-3.71,6.57-.78,2.8-1.17,6.05-1.17,9.76v1.15c0,5.16,.87,9.23,2.62,12.19,1.74,2.96,4.63,4.44,8.67,4.44Z"/>
      <path class="cls-2" d="M505.99,98.97c-5.64,0-10.56-1.25-14.78-3.74-4.22-2.49-7.48-5.92-9.79-10.28-2.31-4.36-3.46-9.34-3.46-14.94v-2.18c0-5.85,1.09-11.04,3.27-15.57,2.18-4.53,5.26-8.09,9.24-10.69,3.98-2.6,8.68-3.88,14.1-3.84,5.34,0,9.83,1.05,13.47,3.16,3.63,2.11,6.4,5.14,8.29,9.11,1.89,3.96,2.83,8.76,2.83,14.4v8.67h-34.68l-.11,.33c.22,2.58,.86,4.88,1.94,6.9,1.07,2.02,2.59,3.6,4.55,4.74,1.96,1.15,4.34,1.72,7.14,1.72s5.63-.37,8.15-1.12c2.53-.74,4.99-1.84,7.39-3.3l4.31,9.81c-2.44,1.96-5.5,3.59-9.19,4.88-3.69,1.29-7.92,1.94-12.68,1.94Zm-11.4-36.43h19.69v-1.42c0-2.4-.32-4.46-.95-6.19-.64-1.73-1.65-3.06-3.05-4.01s-3.21-1.42-5.43-1.42-3.89,.55-5.34,1.66c-1.45,1.11-2.59,2.63-3.41,4.55-.82,1.93-1.37,4.11-1.66,6.54l.16,.27Z"/>
      <polygon class="cls-1" points="158.68 37.39 158.68 99.01 137.24 99.01 137.24 86.8 146.4 86.09 146.4 61.77 126.45 61.77 126.45 88.65 114.18 88.65 114.18 61.77 91.49 61.77 91.49 100.22 79.28 100.22 79.28 37.39 88.82 37.39 90.46 45.85 147.45 45.85 149.09 37.39 158.68 37.39"/>
    </g>
  </g>
</svg>